<svg width="49" height="39" viewBox="0 0 49 39" fill="none" xmlns="http://www.w3.org/2000/svg">
<path d="M9.79 10.444C13.99 11.504 19.348 12.044 25.806 12.044C32.404 12.044 37.642 11.504 41.822 10.444C46.282 9.40401 48.42 8.00401 48.42 6.68401C48.42 5.74401 47.46 4.82401 45.72 4.12401C46.12 4.38401 46.42 4.82401 46.42 5.30401C46.42 6.64401 44.4 7.74401 40.342 8.66401C36.582 9.48401 31.784 10.064 25.946 10.064C20.306 10.064 15.288 9.48401 11.67 8.70401C7.77 7.74401 5.73 6.70401 5.73 5.34401C5.73 4.78401 5.99 4.30401 6.77 3.74401C4.33 4.68401 3.01 5.48401 3.01 6.68401C3.15 8.04401 5.33 9.40401 9.79 10.444ZM19.168 6.12401C23.708 5.72401 25.026 2.80601 30.344 2.32601C32.964 2.12601 34.624 2.64601 34.804 3.56601C34.964 4.42601 33.664 5.00601 32.084 5.12601C29.904 5.34601 29.004 4.56601 28.824 3.82601C27.204 4.00601 26.944 4.68601 27.024 5.16601C27.204 6.08601 29.164 7.00601 32.524 6.68601C36.324 6.38601 37.604 4.88601 37.284 3.38601C36.884 1.42601 33.964 -0.213989 28.724 0.286011C22.006 0.886011 22.046 4.00601 17.468 4.38601C15.588 4.56601 14.548 4.12601 14.368 3.38601C14.248 2.64601 15.168 2.28601 16.248 2.20601C17.248 2.10601 18.468 2.28601 19.048 2.60601C19.468 2.38601 19.608 2.16601 19.568 1.90601C19.368 1.20601 17.988 0.906011 16.248 1.02601C12.848 1.32601 12.848 2.84601 12.968 3.52601C13.308 5.26601 15.928 6.42601 19.168 6.12601V6.12401ZM42.002 13.804C37.802 14.784 32.444 15.422 25.986 15.422C19.386 15.422 14.008 14.742 9.83 13.822C6.07 12.862 4.07 11.802 3.37 10.702C3.73 13.162 4.35 15.542 5.15 17.802C4.19 18.402 3.33 19.142 2.55 20.142C1.12311 21.8817 0.396417 24.091 0.512004 26.338C0.583641 27.3635 0.874175 28.3618 1.36405 29.2657C1.85393 30.1695 2.53179 30.958 3.352 31.578C5.092 32.938 6.972 33.338 9.11 32.938C9.93 32.798 10.85 32.378 11.69 32.098C9.93 32.098 8.45 31.538 6.97 30.358C6.16655 29.8 5.4871 29.0821 4.97429 28.2492C4.46148 27.4163 4.12638 26.4865 3.99 25.518C3.59 23.638 3.99 21.898 5.05 20.36C5.29 20.06 5.55 19.8 5.83 19.56C6.43 21.02 7.07 22.46 7.79 23.8C9.41 26.26 11.03 28.398 12.65 30.718C13.35 32.078 13.81 33.418 14.13 34.756C15.2137 36.2526 16.7935 37.3157 18.588 37.756C20.888 38.556 23.288 38.916 25.746 38.776H26.006C28.5083 38.8854 31.0094 38.5328 33.384 37.736C35.1066 37.2323 36.6213 36.1874 37.704 34.756H37.844C38.104 33.416 38.544 32.076 39.184 30.716C40.782 28.376 42.422 26.258 44.022 23.8C46.2268 19.7186 47.74 15.3001 48.5 10.724C47.64 11.924 45.622 12.984 42.002 13.804Z" fill="#A82A00"/>
</svg>
