<svg width="26" height="43" viewBox="0 0 26 43" fill="none" xmlns="http://www.w3.org/2000/svg">
<path d="M7.88998 14.015C7.3483 15.7854 6.65732 17.5065 5.82448 19.16L5.81998 19.169C5.30076 20.1765 4.99344 21.2797 4.91697 22.4105V22.421C4.73697 24.833 5.54698 27.1415 7.22098 28.9565C8.08308 29.8904 9.13997 30.6233 10.3168 31.1034C11.4936 31.5835 12.7616 31.7989 14.031 31.7345H14.043L14.058 31.733C15.4806 31.6462 16.8598 31.21 18.0736 30.4628C19.2873 29.7157 20.298 28.6808 21.0163 27.4498C21.7345 26.2187 22.1381 24.8296 22.1912 23.4053C22.2444 21.981 21.9455 20.5657 21.321 19.2845L21.318 19.2815C20.4857 17.5833 19.788 15.8224 19.2315 14.015H7.88998ZM13.2 16.13C13.2 16.4403 13.0767 16.7379 12.8573 16.9573C12.6379 17.1767 12.3403 17.3 12.03 17.3C11.7197 17.3 11.4221 17.1767 11.2027 16.9573C10.9832 16.7379 10.86 16.4403 10.86 16.13C10.86 15.8197 10.9832 15.5221 11.2027 15.3027C11.4221 15.0833 11.7197 14.96 12.03 14.96C12.3403 14.96 12.6379 15.0833 12.8573 15.3027C13.0767 15.5221 13.2 15.8197 13.2 16.13ZM18.09 20.21C18.09 20.5203 17.9667 20.8179 17.7473 21.0373C17.5279 21.2567 17.2303 21.38 16.92 21.38C16.6097 21.38 16.3121 21.2567 16.0927 21.0373C15.8732 20.8179 15.75 20.5203 15.75 20.21C15.75 19.8997 15.8732 19.6021 16.0927 19.3827C16.3121 19.1633 16.6097 19.04 16.92 19.04C17.2303 19.04 17.5279 19.1633 17.7473 19.3827C17.9667 19.6021 18.09 19.8997 18.09 20.21ZM12.03 25.91C11.8763 25.91 11.7242 25.8798 11.5822 25.821C11.4403 25.7622 11.3113 25.676 11.2027 25.5673C11.094 25.4587 11.0078 25.3297 10.949 25.1878C10.8902 25.0458 10.86 24.8937 10.86 24.74C10.86 24.5864 10.8902 24.4342 10.949 24.2923C11.0078 24.1503 11.094 24.0213 11.2027 23.9127C11.3113 23.8041 11.4403 23.7179 11.5822 23.6591C11.7242 23.6003 11.8763 23.57 12.03 23.57C12.3403 23.57 12.6379 23.6933 12.8573 23.9127C13.0767 24.1321 13.2 24.4297 13.2 24.74C13.2 25.0503 13.0767 25.3479 12.8573 25.5673C12.6379 25.7867 12.3403 25.91 12.03 25.91Z" fill="#A82A00"/>
<path d="M13.4055 6.53C13.2816 5.33324 12.8387 4.19167 12.123 3.22452C11.4074 2.25736 10.4452 1.50009 9.33688 1.03177C8.22861 0.563459 7.01493 0.401278 5.82257 0.562168C4.63022 0.723058 3.50293 1.20112 2.55842 1.94642C1.61391 2.69173 0.886816 3.67695 0.453069 4.79921C0.019322 5.92146 -0.10517 7.13958 0.0925915 8.32637C0.290353 9.51317 0.803115 10.6251 1.57733 11.5461C2.35155 12.467 3.35883 13.1632 4.49399 13.562C4.03649 14.957 3.47399 16.316 2.80499 17.63C1.58506 20.0421 1.20498 22.7924 1.72499 25.445C2.62499 30.155 6.40499 33.965 11.13 34.88C11.5635 34.964 11.994 35.0255 12.42 35.0645V40.415H7.01999C6.72162 40.415 6.43547 40.5335 6.22449 40.7445C6.01351 40.9555 5.89499 41.2416 5.89499 41.54C5.89499 41.8384 6.01351 42.1245 6.22449 42.3355C6.43547 42.5465 6.72162 42.665 7.01999 42.665H20.085C20.3834 42.663 20.6687 42.5426 20.8783 42.3302C21.0879 42.1178 21.2045 41.8309 21.2025 41.5325C21.2005 41.2341 21.0801 40.9488 20.8677 40.7392C20.6553 40.5296 20.3684 40.413 20.07 40.415H14.67V35.0645C17.6545 34.7835 20.4266 33.3986 22.4437 31.181C24.4607 28.9634 25.5773 26.0727 25.575 23.075C25.575 21.17 25.14 19.37 24.36 17.78C22.7691 14.5611 21.7296 11.098 21.285 7.535C21.253 7.2588 21.1208 7.00392 20.9135 6.81868C20.7061 6.63345 20.438 6.53073 20.16 6.53H18.8205L19.8315 3.5H24.1875C24.705 3.5 25.125 2.828 25.125 2C25.125 1.172 24.705 0.5 24.1875 0.5H18.75C18.435 0.499924 18.1281 0.598984 17.8726 0.783137C17.6171 0.967289 17.426 1.22719 17.3265 1.526L15.66 6.53H13.4055ZM7.72499 12.515H19.395C19.965 12.515 20.46 12.89 20.625 13.445C21.1652 15.2219 21.8474 16.9525 22.665 18.62C23.3991 20.1232 23.751 21.7842 23.6894 23.4559C23.6278 25.1276 23.1547 26.7583 22.312 28.2034C21.4692 29.6485 20.283 30.8633 18.8584 31.7401C17.4337 32.6169 15.8148 33.1287 14.145 33.23C13.95 33.245 13.755 33.245 13.56 33.245C12.1617 33.2407 10.7793 32.9481 9.49916 32.3855C8.21903 31.8228 7.06869 31.0023 6.11999 29.975C4.16999 27.86 3.20999 25.145 3.41999 22.31C3.50999 20.975 3.86999 19.685 4.48499 18.485C5.30013 16.8666 5.97268 15.1802 6.49499 13.445C6.65999 12.89 7.15499 12.515 7.72499 12.515ZM1.73999 7.22C1.73993 5.95905 2.21821 4.74502 3.0783 3.82293C3.93839 2.90084 5.11624 2.33935 6.37415 2.25179C7.63206 2.16422 8.87636 2.5571 9.85591 3.35112C10.8355 4.14515 11.4773 5.2812 11.652 6.53H10.131C10.0122 5.94353 9.7441 5.39762 9.35272 4.94497C8.96134 4.49233 8.45986 4.14825 7.8967 3.94597C7.33354 3.74369 6.72774 3.69004 6.13779 3.7902C5.54785 3.89036 4.9937 4.14095 4.52887 4.51777C4.06403 4.89458 3.70421 5.3849 3.48415 5.94135C3.2641 6.4978 3.19125 7.1016 3.27264 7.69442C3.35403 8.28725 3.5869 8.84907 3.94878 9.32563C4.31065 9.8022 4.7893 10.1774 5.33849 10.415C5.23349 10.91 5.11799 11.402 4.98899 11.891C4.03532 11.5372 3.2128 10.9 2.63199 10.065C2.05117 9.22998 1.73989 8.23716 1.73999 7.22Z" fill="#A82A00"/>
</svg>
