<svg width="43" height="43" viewBox="0 0 43 43" fill="none" xmlns="http://www.w3.org/2000/svg">
<path d="M21.5 0.500002C17.2156 0.500619 13.0339 1.81168 9.51605 4.25725C5.9982 6.70282 3.31254 10.1659 1.81947 14.1817C0.326394 18.1975 0.0973548 22.5739 1.16308 26.7237C2.22881 30.8734 4.53832 34.5979 7.78167 37.3973C11.025 40.1967 15.047 41.9371 19.308 42.385C23.5689 42.8328 27.8649 41.9666 31.6194 39.9027C35.3739 37.8388 38.4072 34.6759 40.3125 30.8384C42.2177 27.0009 42.9035 22.6725 42.278 18.434C42.2412 18.1808 42.1402 17.9413 41.9846 17.7381C41.8291 17.5349 41.6242 17.375 41.3894 17.2733C41.1546 17.1717 40.8977 17.1318 40.6431 17.1575C40.3886 17.1832 40.1448 17.2735 39.935 17.42C39.1125 17.9943 38.1592 18.3531 37.1622 18.4638C36.1652 18.5745 35.1563 18.4334 34.2279 18.0535C33.2995 17.6736 32.4812 17.067 31.8477 16.2892C31.2143 15.5113 30.786 14.5871 30.602 13.601C30.5463 13.3028 30.4016 13.0285 30.1868 12.8142C29.972 12.6 29.6973 12.4559 29.399 12.401C28.4119 12.2175 27.4867 11.7892 26.7081 11.1553C25.9294 10.5215 25.3223 9.70244 24.9423 8.77314C24.5622 7.84385 24.4215 6.83405 24.5329 5.83626C24.6443 4.83846 25.0044 3.88458 25.58 3.062C25.7257 2.85225 25.8155 2.60876 25.8408 2.3546C25.8661 2.10045 25.826 1.84404 25.7245 1.60969C25.6229 1.37533 25.4632 1.17079 25.2605 1.01545C25.0578 0.8601 24.8187 0.759095 24.566 0.722002C23.5507 0.573762 22.526 0.499567 21.5 0.500002ZM21.5 23.75C20.9033 23.75 20.331 23.5129 19.909 23.091C19.4871 22.669 19.25 22.0967 19.25 21.5C19.25 20.9033 19.4871 20.331 19.909 19.909C20.331 19.4871 20.9033 19.25 21.5 19.25C22.0967 19.25 22.669 19.4871 23.091 19.909C23.5129 20.331 23.75 20.9033 23.75 21.5C23.75 22.0967 23.5129 22.669 23.091 23.091C22.669 23.5129 22.0967 23.75 21.5 23.75ZM15.5 29.75C15.5 30.3467 15.2629 30.919 14.841 31.341C14.419 31.7629 13.8467 32 13.25 32C12.6533 32 12.081 31.7629 11.659 31.341C11.2371 30.919 11 30.3467 11 29.75C11 29.1533 11.2371 28.581 11.659 28.159C12.081 27.7371 12.6533 27.5 13.25 27.5C13.8467 27.5 14.419 27.7371 14.841 28.159C15.2629 28.581 15.5 29.1533 15.5 29.75ZM11.75 18.5C11.4545 18.5 11.1619 18.4418 10.889 18.3287C10.616 18.2157 10.3679 18.0499 10.159 17.841C9.95008 17.6321 9.78435 17.384 9.67127 17.111C9.5582 16.8381 9.5 16.5455 9.5 16.25C9.5 15.9545 9.5582 15.6619 9.67127 15.389C9.78435 15.116 9.95008 14.8679 10.159 14.659C10.3679 14.4501 10.616 14.2843 10.889 14.1713C11.1619 14.0582 11.4545 14 11.75 14C12.3467 14 12.919 14.2371 13.341 14.659C13.7629 15.081 14 15.6533 14 16.25C14 16.8467 13.7629 17.419 13.341 17.841C12.919 18.2629 12.3467 18.5 11.75 18.5ZM29 31.25C29 31.8467 28.7629 32.419 28.341 32.841C27.919 33.2629 27.3467 33.5 26.75 33.5C26.1533 33.5 25.581 33.2629 25.159 32.841C24.7371 32.419 24.5 31.8467 24.5 31.25C24.5 30.6533 24.7371 30.081 25.159 29.659C25.581 29.2371 26.1533 29 26.75 29C27.3467 29 27.919 29.2371 28.341 29.659C28.7629 30.081 29 30.6533 29 31.25Z" fill="#A82A00"/>
</svg>
