<svg width="32" height="32" viewBox="0 0 32 32" fill="none" xmlns="http://www.w3.org/2000/svg">
<circle cx="16" cy="16" r="16" fill="#A82A00"/>
<path fill-rule="evenodd" clip-rule="evenodd" d="M13.0743 12.6054C11.1555 12.6054 9.60004 14.3094 9.60004 16.4113V20.4176C9.60004 22.5196 11.1555 24.2235 13.0743 24.2235H18.9258C20.8445 24.2235 22.4 22.5196 22.4 20.4176V16.4113C22.4 14.3094 20.8445 12.6054 18.9258 12.6054H13.0743ZM12.3244 12.1258C12.3244 10.0958 13.97 8.45012 16.0001 8.45012C18.0301 8.45012 19.6758 10.0958 19.6758 12.1258V14.8089C19.6758 15.2231 19.34 15.5589 18.9258 15.5589C18.5116 15.5589 18.1758 15.2231 18.1758 14.8089V12.1258C18.1758 10.9242 17.2017 9.95012 16.0001 9.95012C14.7985 9.95012 13.8244 10.9242 13.8244 12.1258V14.8089C13.8244 15.2231 13.4886 15.5589 13.0744 15.5589C12.6601 15.5589 12.3244 15.2231 12.3244 14.8089V12.1258Z" fill="#F9F5F8"/>
</svg>
