<svg width="22" height="18" viewBox="0 0 22 18" fill="none" xmlns="http://www.w3.org/2000/svg">
<path fill-rule="evenodd" clip-rule="evenodd" d="M13.25 0.0107422H5C2.37665 0.0107422 0.25 2.13739 0.25 4.76074V5.98379C0.25 6.54936 0.644282 6.95867 1.07079 7.10572C1.75802 7.34268 2.25 7.99523 2.25 8.76074C2.25 9.52626 1.75802 10.1788 1.07079 10.4158C0.644281 10.5628 0.25 10.9721 0.25 11.5377V12.7607C0.25 15.3841 2.37665 17.5107 5 17.5107H17C19.6234 17.5107 21.75 15.3841 21.75 12.7607V11.5377C21.75 10.9721 21.3557 10.5628 20.9292 10.4158C20.242 10.1788 19.75 9.52626 19.75 8.76074C19.75 7.99523 20.242 7.34268 20.9292 7.10572C21.3557 6.95867 21.75 6.54936 21.75 5.98379V4.76074C21.75 2.13739 19.6234 0.0107422 17 0.0107422H14.75V1.94934C14.75 2.36355 14.4142 2.69934 14 2.69934C13.5858 2.69934 13.25 2.36355 13.25 1.94934V0.0107422ZM14 3.79364C14.4142 3.79364 14.75 4.12942 14.75 4.54364V6.76732C14.75 7.18153 14.4142 7.51732 14 7.51732C13.5858 7.51732 13.25 7.18153 13.25 6.76732V4.54364C13.25 4.12942 13.5858 3.79364 14 3.79364ZM14.75 9.36162C14.75 8.94741 14.4142 8.61162 14 8.61162C13.5858 8.61162 13.25 8.94741 13.25 9.36162V12.3265C13.25 12.7407 13.5858 13.0765 14 13.0765C14.4142 13.0765 14.75 12.7407 14.75 12.3265V9.36162Z" fill="#A82A00"/>
</svg>
