<svg width="18" height="21" viewBox="0 0 18 21" fill="none" xmlns="http://www.w3.org/2000/svg">
<path fill-rule="evenodd" clip-rule="evenodd" d="M3.41772 3.25C1.39151 3.25 0.234908 5.56321 1.45064 7.18418C1.96951 7.87601 2.25 8.71748 2.25 9.58228V16C2.25 18.6234 4.37665 20.75 7 20.75H11C13.6234 20.75 15.75 18.6234 15.75 16V9.58228C15.75 8.71748 16.0305 7.87601 16.5494 7.18418C17.7651 5.56321 16.6085 3.25 14.5823 3.25H3.41772ZM10.9998 8.25C11.414 8.25 11.7498 8.58579 11.7498 9V15C11.7498 15.4142 11.414 15.75 10.9998 15.75C10.5856 15.75 10.2498 15.4142 10.2498 15V9C10.2498 8.58579 10.5856 8.25 10.9998 8.25ZM7.74981 9C7.74981 8.58579 7.41402 8.25 6.99981 8.25C6.5856 8.25 6.24981 8.58579 6.24981 9L6.24981 15C6.24981 15.4142 6.5856 15.75 6.99981 15.75C7.41402 15.75 7.74981 15.4142 7.74981 15L7.74981 9Z" fill="black"/>
<path d="M13 4L12.4558 2.36754C12.1836 1.55086 11.4193 1 10.5585 1H7.44152C6.58066 1 5.81638 1.55086 5.54415 2.36754L5 4" stroke="black" stroke-width="1.5" stroke-linecap="round"/>
</svg>
