<svg width="49" height="49" viewBox="0 0 49 49" fill="none" xmlns="http://www.w3.org/2000/svg">
<g id="simple-icons:coffeescript" clip-path="url(#clip0_144_107)">
<path id="Vector" d="M9.79 15.444C13.99 16.504 19.348 17.044 25.806 17.044C32.404 17.044 37.642 16.504 41.822 15.444C46.282 14.404 48.42 13.004 48.42 11.684C48.42 10.744 47.46 9.82401 45.72 9.12401C46.12 9.38401 46.42 9.82401 46.42 10.304C46.42 11.644 44.4 12.744 40.342 13.664C36.582 14.484 31.784 15.064 25.946 15.064C20.306 15.064 15.288 14.484 11.67 13.704C7.77 12.744 5.73 11.704 5.73 10.344C5.73 9.78401 5.99 9.30401 6.77 8.74401C4.33 9.68401 3.01 10.484 3.01 11.684C3.15 13.044 5.33 14.404 9.79 15.444ZM19.168 11.124C23.708 10.724 25.026 7.80601 30.344 7.32601C32.964 7.12601 34.624 7.64601 34.804 8.56601C34.964 9.42601 33.664 10.006 32.084 10.126C29.904 10.346 29.004 9.56601 28.824 8.82601C27.204 9.00601 26.944 9.68601 27.024 10.166C27.204 11.086 29.164 12.006 32.524 11.686C36.324 11.386 37.604 9.88601 37.284 8.38601C36.884 6.42601 33.964 4.78601 28.724 5.28601C22.006 5.88601 22.046 9.00601 17.468 9.38601C15.588 9.56601 14.548 9.12601 14.368 8.38601C14.248 7.64601 15.168 7.28601 16.248 7.20601C17.248 7.10601 18.468 7.28601 19.048 7.60601C19.468 7.38601 19.608 7.16601 19.568 6.90601C19.368 6.20601 17.988 5.90601 16.248 6.02601C12.848 6.32601 12.848 7.84601 12.968 8.52601C13.308 10.266 15.928 11.426 19.168 11.126V11.124ZM42.002 18.804C37.802 19.784 32.444 20.422 25.986 20.422C19.386 20.422 14.008 19.742 9.83 18.822C6.07 17.862 4.07 16.802 3.37 15.702C3.73 18.162 4.35 20.542 5.15 22.802C4.19 23.402 3.33 24.142 2.55 25.142C1.12311 26.8817 0.396417 29.091 0.512004 31.338C0.583641 32.3635 0.874175 33.3618 1.36405 34.2657C1.85393 35.1695 2.53179 35.958 3.352 36.578C5.092 37.938 6.972 38.338 9.11 37.938C9.93 37.798 10.85 37.378 11.69 37.098C9.93 37.098 8.45 36.538 6.97 35.358C6.16655 34.8 5.4871 34.0821 4.97429 33.2492C4.46148 32.4163 4.12638 31.4865 3.99 30.518C3.59 28.638 3.99 26.898 5.05 25.36C5.29 25.06 5.55 24.8 5.83 24.56C6.43 26.02 7.07 27.46 7.79 28.8C9.41 31.26 11.03 33.398 12.65 35.718C13.35 37.078 13.81 38.418 14.13 39.756C15.2137 41.2526 16.7935 42.3157 18.588 42.756C20.888 43.556 23.288 43.916 25.746 43.776H26.006C28.5083 43.8854 31.0094 43.5328 33.384 42.736C35.1066 42.2323 36.6213 41.1874 37.704 39.756H37.844C38.104 38.416 38.544 37.076 39.184 35.716C40.782 33.376 42.422 31.258 44.022 28.8C46.2268 24.7186 47.74 20.3001 48.5 15.724C47.64 16.924 45.622 17.984 42.002 18.804Z" fill="#A82A00"/>
</g>
<defs>
<clipPath id="clip0_144_107">
<rect width="48" height="48" fill="white" transform="translate(0.5 0.5)"/>
</clipPath>
</defs>
</svg>
